<svg width="42" height="40" viewBox="0 0 42 40" fill="none" xmlns="http://www.w3.org/2000/svg">
<path d="M32.635 29.2837L42 23.2953L35.3819 22.8389L39.1866 18.9344L30.7154 19.6926C30.7154 19.6926 30.5335 18.1581 28.7961 16.1673C27.7374 14.9546 25.355 14.1584 25.355 14.1584C25.355 14.1584 25.694 9.21243 23.2785 4.81453C21.7494 2.52091 18.6046 1.91409 15.4614 0.928558C17.8769 8.81293 16.9836 11.9217 16.9836 11.9217C16.9836 11.9217 13.5091 7.48585 9.6046 6.80401C7.32197 6.65219 2.55651 9.53318 0 11.4667C9.04215 16.8493 10.0349 22.2701 10.0349 22.2701C6.69246 22.6108 0.835634 26.5911 0.835634 26.5911C8.04902 28.1835 10.4649 30.154 10.4649 30.154L6.46139 32.8077L14.5577 33.738C14.0862 33.3479 13.0564 31.9281 12.8484 31.1196C12.63 30.2709 12.7167 27.5435 13.4602 27.3762C13.8466 27.2888 14.1224 27.4949 14.285 27.772C14.2688 27.5757 14.2615 27.3819 14.2615 27.1899C14.2615 23.1332 17.6701 20.2447 21.2041 20.2447C24.904 20.2447 29.297 21.7328 28.9518 26.094C29.1144 25.816 28.5604 27.2882 28.9472 27.3761C29.6899 27.5434 29.7766 30.2708 29.5586 31.1195C29.3386 31.9682 28.209 33.5032 27.7768 33.8006C27.5715 33.9396 27.4205 33.9678 27.3188 33.9594C27.2579 34.2595 27.194 34.5182 27.1281 34.7335L32.6352 34.5142L30.0879 33.1116L37.2355 30.6852L32.635 29.2837Z" fill="#FF681A"/>
<path d="M21.3456 39.9909C21.2774 39.9909 21.2285 39.9887 21.2035 39.9878C21.1792 39.9887 21.1295 39.9909 21.0609 39.9909C20.6518 39.9909 19.8801 39.9353 19.3088 39.573C17.512 38.4295 15.3311 35.7365 15.1066 35.2488C15.0068 35.0317 14.9124 34.7215 14.8192 34.3048C14.704 34.2704 14.5838 34.2091 14.4605 34.127C13.9585 33.7836 12.7708 32.1595 12.5297 31.2279C12.3428 30.5019 12.3386 28.433 12.8263 27.5111C12.9773 27.2268 13.168 27.0552 13.3945 27.0044C13.5818 26.9625 13.7648 26.97 13.9308 27.0229C13.9743 25.067 14.7745 23.2545 16.1953 21.9057C17.5587 20.6099 19.384 19.8667 21.2031 19.8667C24.3055 19.8667 26.9406 20.8496 28.2534 22.4953C29.0104 23.4433 29.3599 24.6001 29.294 25.9324C29.3356 26.056 29.3036 26.1871 29.2589 26.3729C29.1804 26.6959 29.1399 26.9215 29.1361 27.0464C29.3079 27.1245 29.457 27.2807 29.5787 27.5115C30.0657 28.4321 30.0622 30.5025 29.8761 31.2271C29.635 32.1601 28.4473 33.7842 27.9457 34.1262C27.8216 34.2096 27.7018 34.2714 27.5855 34.3049C27.4926 34.7207 27.3986 35.0309 27.2992 35.2481C27.0754 35.7353 24.8957 38.4283 23.0966 39.5735C22.5268 39.9354 21.7555 39.991 21.3457 39.991L21.3456 39.9909ZM21.2046 39.2296L21.2208 39.2305C21.225 39.2305 21.2697 39.2327 21.346 39.2327C21.5633 39.2327 22.3072 39.2097 22.776 38.9101C24.4874 37.8213 26.5441 35.2537 26.7145 34.8948C26.7776 34.758 26.8774 34.4694 26.9968 33.8749L27.0604 33.5594L27.352 33.5823C27.3809 33.5823 27.4645 33.5713 27.6086 33.4738C27.96 33.235 29.0456 31.7746 29.2424 31.0125C29.4081 30.3677 29.3568 28.5516 29.0136 27.9029C28.9589 27.7974 28.9088 27.7524 28.8853 27.7484C28.7535 27.718 28.641 27.628 28.5694 27.4964C28.5628 27.4854 28.5578 27.4735 28.552 27.4611L28.5074 27.5384L28.5197 27.3795C28.4245 27.0754 28.5058 26.6557 28.6114 26.2148L28.6229 26.0603C28.7177 24.8656 28.4295 23.8382 27.7665 23.0068C26.5769 21.5151 24.124 20.6249 21.2043 20.6249C19.5369 20.6249 17.8657 21.305 16.6191 22.4886C15.3123 23.7301 14.5927 25.4009 14.5927 27.191C14.5927 27.3759 14.6 27.5591 14.6146 27.7374L14.7352 29.2242L14.0102 27.984C13.8911 27.7801 13.7293 27.702 13.5244 27.7492C13.4993 27.7545 13.4504 27.7987 13.3945 27.9037C13.0513 28.5538 13.0001 30.3677 13.1665 31.0133C13.363 31.775 14.4486 33.2345 14.8007 33.4755C14.944 33.5734 15.0268 33.5831 15.0561 33.5831H15.0646L15.3469 33.5589L15.4109 33.8757C15.5311 34.4702 15.6309 34.7584 15.6933 34.8957C15.8624 35.254 17.9212 37.823 19.6317 38.9109C20.1017 39.2105 20.8456 39.2335 21.0617 39.2335C21.1372 39.2335 21.1835 39.2313 21.1877 39.2313L21.2046 39.2296Z" fill="#FF681A"/>
<path d="M13.0801 27.3122L14.9663 29.7758L14.7675 27.8048L16.3228 29.4726C16.3228 29.4726 15.9922 27.1975 16.389 25.9217C16.8968 24.6837 18.2093 23.975 18.2093 23.975C18.2093 23.975 18.056 28.447 18.3746 30.3434C19.4121 28.056 22.5772 23.7097 24.2981 22.951C24.7943 25.2887 24.0997 28.965 23.8019 30.7211C25.3251 28.852 27.3099 25.2385 27.4089 24.4674C27.4089 24.4674 27.6382 24.6024 27.7395 24.884C27.9132 25.3672 27.2768 28.0307 26.9463 29.0916C27.4086 28.7747 28.3031 27.9923 28.3031 27.9923L27.4756 30.0007C27.4756 30.0007 29.6924 28.3453 29.9238 27.9163C30.3985 27.1471 31.3142 21.2442 31.3142 21.2442L17.2841 17.6434L12.0559 22.1552L13.0801 27.3122Z" fill="#FF681A"/>
</svg>
