<?xml version="1.0" encoding="utf-8"?>
<!-- Svg Vector Icons : http://www.onlinewebfonts.com/icon -->
<!DOCTYPE svg PUBLIC "-//W3C//DTD SVG 1.1//EN" "http://www.w3.org/Graphics/SVG/1.1/DTD/svg11.dtd">
<svg version="1.1" xmlns="http://www.w3.org/2000/svg" xmlns:xlink="http://www.w3.org/1999/xlink" x="0px" y="0px" viewBox="0 0 1000 1000" enable-background="new 0 0 1000 1000" xml:space="preserve">
<metadata> Svg Vector Icons : http://www.onlinewebfonts.com/icon </metadata>
<g><path d="M500,10C229.4,10,10,229.4,10,500s219.4,490,490,490c270.6,0,490-219.4,490-490C990,229.4,770.6,10,500,10z M435.3,743.6c-49.3,49.3-129.6,49.3-179,0c-49.3-49.3-49.3-129.6,0-178.9l126.8-126.8c49.3-49.3,129.6-49.3,179,0c1.3,1.3,2.6,2.7,3.9,4.1c0.7,0.6,1.5,1.3,2.1,1.9c2,2,3.6,4.2,5,6.5c0.2,0.2,0.3,0.4,0.5,0.6c0,0-0.1,0.1-0.1,0.1c6.1,11.5,4.3,26-5.4,35.6c-9.7,9.7-24.4,11.5-35.9,5.2c-0.8,0.8-8.7-7.1-13-11.3l0,0c-25.8-25.8-67.3-26-93.1-0.2l-127,127c-25.8,25.8-25.8,67.5,0,93.3l0,0c25.8,25.8,67.5,25.8,93.3,0l76.4-76.4c26.5,13,57.7,13.4,84.5,1.1L435.3,743.6z M743.6,435.3L616.9,562.1c-49.3,49.3-129.6,49.3-179,0c-1.3-1.3-2.6-2.7-3.9-4.1c-0.7-0.6-1.5-1.3-2.1-1.9c-2-2-3.6-4.2-5-6.5c-0.2-0.2-0.3-0.4-0.5-0.6c0,0,0.1-0.1,0.1-0.1c-6.1-11.5-4.3-26,5.4-35.6c9.7-9.7,24.4-11.5,35.9-5.2c0.8-0.8,8.7,7.1,13,11.3l0,0c25.8,25.8,67.3,26,93.1,0.2l127-127c25.8-25.8,25.8-67.5,0-93.3l0,0c-25.8-25.8-67.5-25.8-93.3,0L531,375.6c-26.4-12.9-57.7-13.4-84.5-1.1l118.1-118.1c49.3-49.3,129.6-49.3,179,0C793,305.7,793,386,743.6,435.3z"/></g>
</svg>